HIERARCHY
ROOT Hips
{
	OFFSET	0.00	0.00	0.00
	CHANNELS 6 Xposition Yposition Zposition Zrotation Xrotation Yrotation
	JOINT LeftUpLeg
	{
		OFFSET	 0.126116	-0.014019	-0.065224
		CHANNELS 3 Zrotation Xrotation Yrotation
		JOINT LeftLeg
		{
			OFFSET	 0.000000	 0.000000	 0.569914
			CHANNELS 3 Zrotation Xrotation Yrotation
			JOINT LeftFoot
			{
				OFFSET	 0.000000	 0.000000	 0.544423
				CHANNELS 3 Zrotation Xrotation Yrotation
				JOINT LeftToeBase
				{
					OFFSET	 0.000000	 0.000000	 0.207117
					CHANNELS 3 Zrotation Xrotation Yrotation
					End Site
					{
						OFFSET	 0.000000	 0.000000	 0.207117
					}
				}
			}
		}
	}
	JOINT RightUpLeg
	{
		OFFSET	-0.124023	-0.008373	-0.065224
		CHANNELS 3 Zrotation Xrotation Yrotation
		JOINT RightLeg
		{
			OFFSET	 0.000000	 0.000000	 0.570047
			CHANNELS 3 Zrotation Xrotation Yrotation
			JOINT RightFoot
			{
				OFFSET	 0.000000	 0.000000	 0.544354
				CHANNELS 3 Zrotation Xrotation Yrotation
				JOINT RightToeBase
				{
					OFFSET	 0.000000	 0.000000	 0.207540
					CHANNELS 3 Zrotation Xrotation Yrotation
					End Site
					{
						OFFSET	 0.000000	 0.000000	 0.207540
					}
				}
			}
		}
	}
	JOINT Spine
	{
		OFFSET	 0.000184	-0.007763	 0.117403
		CHANNELS 3 Zrotation Xrotation Yrotation
		JOINT Spine1
		{
			OFFSET	 0.000000	 0.000000	 0.137269
			CHANNELS 3 Zrotation Xrotation Yrotation
			JOINT Spine2
			{
				OFFSET	 0.000000	 0.000000	 0.156879
				CHANNELS 3 Zrotation Xrotation Yrotation
				JOINT LeftShoulder
				{
					OFFSET	 0.080501	-0.002496	 0.160144
					CHANNELS 3 Zrotation Xrotation Yrotation
					JOINT LeftArm
					{
						OFFSET	 0.000000	 0.000000	 0.164363
						CHANNELS 3 Zrotation Xrotation Yrotation
						JOINT LeftForeArm
						{
							OFFSET	 0.000000	 0.000000	 0.364576
							CHANNELS 3 Zrotation Xrotation Yrotation
							JOINT LeftHand
							{
								OFFSET	 0.000000	 0.000000	 0.360812
								CHANNELS 3 Zrotation Xrotation Yrotation
								JOINT LeftHandIndex1
								{
									OFFSET	 0.000000	 0.000000	 0.086006
									CHANNELS 3 Zrotation Xrotation Yrotation
									JOINT LeftHandIndex2
									{
										OFFSET	 0.000000	 0.000000	 0.047236
										CHANNELS 3 Zrotation Xrotation Yrotation
										JOINT LeftHandIndex3
										{
											OFFSET	-0.004284	-0.000551	 0.038166
											CHANNELS 3 Zrotation Xrotation Yrotation
											End Site
											{
												OFFSET	-0.004284	-0.000551	 0.038166
											}
										}
									}
								}
							}
						}
					}
				}
				JOINT Neck
				{
					OFFSET	 0.000000	 0.000000	 0.176489
					CHANNELS 3 Zrotation Xrotation Yrotation
					JOINT Head
					{
						OFFSET	 0.000000	-0.001747	 0.077940
						CHANNELS 3 Zrotation Xrotation Yrotation
						End Site
						{
							OFFSET	 0.000000	-0.001747	 0.077940
						}
					}
				}
				JOINT RightShoulder
				{
					OFFSET	-0.080363	 0.000306	 0.159706
					CHANNELS 3 Zrotation Xrotation Yrotation
					JOINT RightArm
					{
						OFFSET	 0.000000	 0.000000	 0.164196
						CHANNELS 3 Zrotation Xrotation Yrotation
						JOINT RightForeArm
						{
							OFFSET	 0.000000	 0.000000	 0.365611
							CHANNELS 3 Zrotation Xrotation Yrotation
							JOINT RightHand
							{
								OFFSET	 0.000000	 0.000000	 0.360648
								CHANNELS 3 Zrotation Xrotation Yrotation
								JOINT RightHandIndex1
								{
									OFFSET	 0.000000	 0.000000	 0.069977
									CHANNELS 3 Zrotation Xrotation Yrotation
									JOINT RightHandIndex2
									{
										OFFSET	 0.000000	 0.000000	 0.052305
										CHANNELS 3 Zrotation Xrotation Yrotation
										JOINT RightHandIndex3
										{
											OFFSET	 0.009002	-0.000782	 0.042196
											CHANNELS 3 Zrotation Xrotation Yrotation
											End Site
											{
												OFFSET	 0.009002	-0.000782	 0.042196
											}
										}
									}
								}
							}
						}
					}
				}
			}
		}
	}
}
MOTION
Frames:    4
Frame Time: 0.03333334
 3.686469	-0.007075	 1.242130	 88.219140	-2.111600	 0.126972	 6.499183	-2.249277	-178.515000	-2.482363	-35.507750	 1.258026	 11.503250	 89.840520	-10.463600	-2.376215	 30.415710	-0.043021	 1.596711	-29.639470	 179.458200	 20.964800	-72.656040	 24.419680	 177.988800	 89.223430	-170.651900	 2.378687	 29.651620	 0.027556	-8.377038	 4.898149	 1.486503	-13.073330	-0.586341	 0.470283	-14.358140	-2.641622	-1.285210	-91.796760	 78.092000	 178.902200	 35.688470	 63.555630	-47.505280	-9.000782	-4.211546	-29.365970	 4.085686	 2.579104	-5.367847	-3.812334	 37.924440	-2.927599	-2.450526	 36.184240	 0.754587	-1.378229	 35.397820	-2.634230	-0.318152	 4.044362	-1.871806	-3.217223	-12.027250	-2.366539	 89.793090	 78.734630	 179.525500	-41.819000	 71.361820	 43.842550	 1.671026	-7.563162	 25.713440	-13.883690	 1.437043	 9.574297	 6.437017	 35.671460	-0.771858	 2.830251	 35.756010	-7.813440	-2.350882	 35.473990	 5.254307
 3.709483	-0.006144	 1.240642	 88.328690	-1.966300	-0.200110	 6.214849	-0.530081	-178.015000	-2.776996	-34.166400	 1.047975	 103.021000	 90.000000	-102.273600	-2.376555	 30.353790	-0.041636	 1.807204	-31.091130	 179.593100	 17.438610	-69.756590	 20.771940	-178.677600	 88.803840	-173.846200	 2.377921	 29.803170	 0.030898	-8.421890	 4.858253	 1.847785	-13.147830	-0.596261	 0.446532	-14.362220	-2.654977	-1.287248	-91.786520	 78.319960	 178.850100	 35.435470	 62.963360	-48.042370	-8.832074	-4.342842	-30.240130	 4.120105	 2.034976	-5.366253	-3.812334	 37.924440	-2.927599	-2.450526	 36.184240	 0.754587	-1.378229	 35.397820	-2.634230	-0.334689	 4.092097	-2.103678	-3.151914	-12.184810	-2.249089	 89.788790	 78.508750	 179.491800	-41.732230	 71.416440	 43.383770	 1.777112	-7.629653	 26.273990	-13.636620	 0.899486	 9.575428	 6.437017	 35.671460	-0.771858	 2.830251	 35.756010	-7.813440	-2.350882	 35.473990	 5.254307
 3.732980	-0.005349	 1.239438	 88.433920	-1.795229	-0.484055	 6.036880	 1.400219	-177.548200	-3.009559	-32.345470	 0.953777	 22.316290	 89.878060	-21.698150	-2.376163	 30.426530	-0.043252	 1.950470	-32.292410	 179.715700	 14.578840	-66.436420	 17.686380	-176.035900	 88.862370	-176.348700	 2.377715	 29.844980	 0.031817	-8.457245	 4.799583	 2.172464	-13.213700	-0.596712	 0.422261	-14.370720	-2.655910	-1.288134	-91.776170	 78.527590	 178.802700	 35.154720	 62.412830	-48.537540	-8.698490	-4.462316	-31.015500	 4.141876	 1.425416	-5.365498	-3.812334	 37.924440	-2.927599	-2.450526	 36.184240	 0.754587	-1.378229	 35.397820	-2.634230	-0.354712	 4.155424	-2.320066	-3.101232	-12.339410	-2.176127	 89.784360	 78.303640	 179.468500	-41.672390	 71.479020	 43.011450	 1.871940	-7.676266	 26.713060	-13.405440	 0.293564	 9.576643	 6.437017	 35.671460	-0.771858	 2.830251	 35.756010	-7.813440	-2.350882	 35.473990	 5.254307
 3.756851	-0.004761	 1.238389	 88.525890	-1.608494	-0.679633	 5.970745	 3.534648	-177.209300	-3.225097	-30.054930	 0.931511	 13.373100	 89.694180	-12.782520	-2.374325	 30.762220	-0.050745	 2.058272	-33.363590	 179.769000	 12.343380	-62.776700	 15.149490	-171.961400	 89.068750	 179.736300	 2.378517	 29.686870	 0.028334	-8.476854	 4.729403	 2.402627	-13.257070	-0.589017	 0.401880	-14.378620	-2.646525	-1.287676	-91.767780	 78.681920	 178.770600	 34.925160	 61.879060	-49.040800	-8.653957	-4.504659	-31.689960	 4.029357	 0.747377	-5.365234	-3.812334	 37.924440	-2.927599	-2.450526	 36.184240	 0.754587	-1.378229	 35.397820	-2.634230	-0.368048	 4.226243	-2.507438	-3.069985	-12.477680	-2.141717	 89.780840	 78.147870	 179.453800	-41.628100	 71.553640	 42.716590	 1.953557	-7.703755	 27.012960	-13.197370	-0.379987	 9.578239	 6.437017	 35.671460	-0.771858	 2.830251	 35.756010	-7.813440	-2.350882	 35.473990	 5.254307
